<svg width="64" height="64" viewBox="0 0 64 64" xmlns="http://www.w3.org/2000/svg">
    <path d="M8.92974 1.3791L14.2484 10.6153L19.5671 1.3791H23.4969L16.3149 12.6487L23.463 23.9183H19.5332L14.2146 15.1645L8.89586 23.9183H5L12.0464 12.6487L5 1.3791H8.92974ZM48.9046 24.3319C46.9059 24.3319 45.1443 23.8494 43.6537 22.8844C42.1631 21.9194 40.9774 20.5753 40.1305 18.8177C39.2836 17.06 38.877 15.0267 38.877 12.7176C38.877 10.4086 39.2836 8.30628 40.1305 6.54864C40.9774 4.791 42.1631 3.44691 43.6537 2.44747C45.1443 1.44803 46.9059 1 48.9046 1C50.9034 1 52.665 1.48249 54.1556 2.44747C55.6462 3.41245 56.8319 4.791 57.6788 6.54864C58.5257 8.30628 58.9322 10.3396 58.9322 12.7176C58.9322 15.0956 58.5257 17.0945 57.6788 18.8177C56.8319 20.5753 55.6462 21.9194 54.1556 22.8844C52.665 23.8494 50.9034 24.3319 48.9046 24.3319ZM48.9046 21.2301C50.4291 21.2301 51.6826 20.8166 52.665 20.0239C53.6474 19.2312 54.3588 18.1973 54.8331 16.8877C55.3074 15.5781 55.5445 14.1996 55.5445 12.6832C55.5445 11.1668 55.3074 9.75375 54.8331 8.4786C54.3588 7.16898 53.6474 6.13508 52.665 5.30795C51.6826 4.48082 50.4291 4.10172 48.9046 4.10172C47.3802 4.10172 46.1267 4.51529 45.1443 5.30795C44.1619 6.10061 43.4504 7.16898 42.9762 8.4786C42.5019 9.78822 42.2647 11.2012 42.2647 12.6832C42.2647 14.1651 42.5019 15.5781 42.9762 16.8877C43.4504 18.1973 44.1619 19.2312 45.1443 20.0239C46.1267 20.8166 47.3802 21.2301 48.9046 21.2301ZM15.0615 63C13.0627 63 11.3011 62.5175 9.81054 61.5525C8.31995 60.5875 7.13425 59.2435 6.28733 57.4858C5.4404 55.7282 5.03388 53.6948 5.03388 51.3858C5.03388 49.0767 5.4404 46.9744 6.28733 45.2168C7.13425 43.4591 8.31995 42.1151 9.81054 41.1156C11.3011 40.1162 13.0627 39.6682 15.0615 39.6682C17.0602 39.6682 18.8218 40.1506 20.3124 41.1156C21.803 42.0806 22.9887 43.4591 23.8356 45.2168C24.6826 46.9744 25.0891 49.0078 25.0891 51.3858C25.0891 53.7638 24.6826 55.7626 23.8356 57.4858C22.9887 59.2435 21.803 60.5875 20.3124 61.5525C18.8218 62.5175 17.0602 63 15.0615 63ZM15.0615 59.8983C16.5859 59.8983 17.8394 59.4847 18.8218 58.6921C19.8043 57.8994 20.5157 56.8655 20.99 55.5559C21.4642 54.2463 21.7014 52.8677 21.7014 51.3513C21.7014 49.8349 21.4642 48.4219 20.99 47.1468C20.5157 45.8371 19.8043 44.8032 18.8218 43.9761C17.8394 43.149 16.5859 42.7699 15.0615 42.7699C13.537 42.7699 12.2836 43.1834 11.3011 43.9761C10.3187 44.7688 9.60728 45.8371 9.133 47.1468C8.65872 48.4564 8.42158 49.8694 8.42158 51.3513C8.42158 52.8332 8.65872 54.2463 9.133 55.5559C9.60728 56.8655 10.3187 57.8994 11.3011 58.6921C12.2836 59.4847 13.537 59.8983 15.0615 59.8983ZM44.4329 40.0472L49.7516 49.2835L55.0703 40.0472H59L51.8519 51.3168L59 62.5864H55.0703L49.7516 53.8327L44.4329 62.5864H40.5031L47.5496 51.3168L40.5031 40.0472H44.4329Z" fill="#C91B53"/>
</svg>
